<svg width="51" height="51" viewBox="0 0 51 51" fill="none" xmlns="http://www.w3.org/2000/svg">
<path d="M25.5 51C39.5833 51 51 39.5833 51 25.5C51 11.4167 39.5833 0 25.5 0C11.4167 0 0 11.4167 0 25.5C0 39.5833 11.4167 51 25.5 51Z" fill="black"/>
<path d="M18.5791 14.6125C19.5153 14.603 20.4499 14.6929 21.3671 14.8807C22.1379 15.0326 22.8718 15.3329 23.528 15.7647C24.13 16.1696 24.6147 16.726 24.9333 17.3778C25.2827 18.1667 25.4505 19.0239 25.4244 19.8863C25.4591 20.8377 25.2035 21.7771 24.6916 22.5798C24.1341 23.3522 23.3802 23.9613 22.508 24.3441C23.6948 24.6337 24.7379 25.3403 25.4471 26.3349C26.1119 27.3529 26.4494 28.5499 26.4142 29.7652C26.4398 30.7366 26.2257 31.6993 25.7909 32.5683C25.3881 33.3392 24.8081 34.0034 24.0984 34.5063C23.3611 35.0194 22.5368 35.3944 21.6656 35.6132C20.7552 35.8593 19.8168 35.9863 18.8738 35.9909H8.5V14.6125H18.5791ZM17.9709 23.2485C18.7057 23.2837 19.4322 23.0795 20.0411 22.6667C20.5813 22.2701 20.8458 21.6203 20.8458 20.7212C20.8629 20.2973 20.7719 19.8761 20.5813 19.4972C20.4148 19.1826 20.1635 18.9209 19.856 18.7416C19.5389 18.5493 19.1873 18.421 18.8209 18.3638C18.4223 18.2898 18.0174 18.2544 17.612 18.2581H13.2222V23.2485H17.9709ZM18.2316 32.3492C18.6747 32.3532 19.117 32.3076 19.55 32.2132C19.9459 32.1348 20.323 31.9809 20.6607 31.7598C20.9811 31.5443 21.2412 31.2504 21.4162 30.9061C21.6226 30.474 21.7199 29.998 21.6996 29.5196C21.6996 28.4203 21.3898 27.6307 20.7702 27.1623C20.0568 26.6603 19.1976 26.408 18.326 26.4445H13.2222V32.3492H18.2316Z" fill="white"/>
<path d="M33.1122 32.2774C33.7469 32.8969 34.6686 33.2105 35.8624 33.2105C36.6513 33.2308 37.4268 33.0036 38.08 32.5607C38.6006 32.2433 38.9997 31.7604 39.2133 31.1893H42.9571C42.3564 33.0518 41.446 34.3854 40.1955 35.1862C38.8524 36.0178 37.2941 36.4356 35.7151 36.3876C34.5873 36.4032 33.4669 36.2045 32.4133 35.802C31.4694 35.4351 30.6162 34.868 29.9124 34.1398C29.22 33.393 28.6832 32.5159 28.3333 31.5596C27.953 30.5008 27.765 29.3827 27.778 28.2578C27.77 27.1529 27.9633 26.0559 28.3484 25.0202C28.7059 24.0552 29.2579 23.174 29.9701 22.4312C30.6824 21.6884 31.5397 21.0999 32.4889 20.7022C33.5107 20.2721 34.6103 20.0573 35.7189 20.0714C36.9092 20.0394 38.0894 20.2988 39.1566 20.8269C40.1073 21.3163 40.9292 22.023 41.5555 22.8896C42.1951 23.771 42.6582 24.7677 42.9193 25.8249C43.1974 26.9508 43.2969 28.1135 43.214 29.2702H32.0582C32.0582 30.4942 32.4889 31.654 33.1122 32.2774ZM37.9969 24.1438C37.4906 23.5847 36.6369 23.2825 35.5904 23.2825C35.0066 23.2612 34.4262 23.3804 33.898 23.63C33.4847 23.8384 33.1183 24.1289 32.8213 24.4838C32.56 24.8045 32.366 25.1745 32.2509 25.5718C32.1516 25.9042 32.087 26.2461 32.0582 26.5918H38.9753C38.9235 25.6912 38.5801 24.832 37.9969 24.1438Z" fill="white"/>
<path d="M39.8556 16.0442H31.1893V18.156H39.8556V16.0442Z" fill="white"/>
</svg>
