<svg width="51" height="51" viewBox="0 0 51 51" fill="none" xmlns="http://www.w3.org/2000/svg">
<path d="M25.5 51C39.5833 51 51 39.5833 51 25.5C51 11.4167 39.5833 0 25.5 0C11.4167 0 0 11.4167 0 25.5C0 39.5833 11.4167 51 25.5 51Z" fill="#4467AD"/>
<path d="M27.472 22.0206C27.8913 21.5522 28.2275 21.0724 28.6658 20.6682C29.2883 20.0601 30.026 19.5825 30.8356 19.2633C31.6452 18.9441 32.5104 18.7898 33.3804 18.8095C34.3804 18.7985 35.3771 18.9256 36.3422 19.1873C38.556 19.8258 39.8442 21.352 40.4562 23.5129C40.8662 25.1319 41.0505 26.7998 41.004 28.4693C41.004 31.9902 41.004 35.5149 41.004 39.0471C41.004 39.3795 40.9133 39.4626 40.5884 39.4626C38.7751 39.4475 36.9605 39.4475 35.1447 39.4626C34.8273 39.4626 34.7669 39.3644 34.7669 39.0849C34.7593 35.6949 34.7555 32.3264 34.7555 28.9793C34.7742 28.1375 34.6763 27.2972 34.4647 26.4822C34.0302 24.9711 32.9535 24.2155 31.3782 24.2949C29.2249 24.4082 28.1067 25.4735 27.8309 27.6609C27.7673 28.1836 27.7358 28.7097 27.7364 29.2362C27.7364 32.4926 27.7364 35.7529 27.7364 39.0131C27.7364 39.338 27.6571 39.4362 27.3247 39.4324C25.4962 39.4173 23.6678 39.4173 21.8393 39.4324C21.5484 39.4324 21.4615 39.3531 21.4615 39.0546C21.4615 32.5972 21.4615 26.1435 21.4615 19.6935C21.4615 19.3724 21.5673 19.3158 21.8695 19.3158C23.6035 19.3158 25.3413 19.3158 27.0753 19.3158C27.3964 19.3158 27.4795 19.414 27.4531 19.7162C27.4607 20.4793 27.472 21.25 27.472 22.0206Z" fill="#FEFEFE"/>
<path d="M17.5289 29.3949C17.5289 32.5909 17.5289 35.7831 17.5289 38.9753C17.5289 39.3304 17.442 39.4362 17.0755 39.4324C15.2622 39.4324 13.4489 39.4324 11.6355 39.4324C11.3446 39.4324 11.2578 39.3606 11.2578 39.0546C11.2578 32.5896 11.2578 26.1258 11.2578 19.6633C11.2578 19.3951 11.322 19.2855 11.6053 19.2855C13.4451 19.2855 15.2886 19.2855 17.1284 19.2855C17.4798 19.2855 17.5289 19.4177 17.5289 19.72C17.5251 22.9575 17.5289 26.1762 17.5289 29.3949Z" fill="#FEFEFE"/>
<path d="M18.0313 12.8973C18.0358 13.6159 17.8268 14.3196 17.4307 14.9191C17.0346 15.5187 16.4693 15.987 15.8066 16.2648C15.1438 16.5425 14.4136 16.6172 13.7084 16.4792C13.0032 16.3412 12.3548 15.9968 11.8457 15.4898C11.3365 14.9828 10.9894 14.3359 10.8485 13.6313C10.7076 12.9267 10.7791 12.1961 11.0541 11.5322C11.3291 10.8683 11.7951 10.3011 12.393 9.90248C12.9908 9.50387 13.6937 9.29186 14.4122 9.29334C15.3683 9.29728 16.2842 9.67778 16.9616 10.3524C17.6391 11.027 18.0234 11.9413 18.0313 12.8973Z" fill="#FEFEFE"/>
</svg>
