<svg width="51" height="51" viewBox="0 0 51 51" fill="none" xmlns="http://www.w3.org/2000/svg">
<path d="M25.5 51C39.5833 51 51 39.5833 51 25.5C51 11.4167 39.5833 0 25.5 0C11.4167 0 0 11.4167 0 25.5C0 39.5833 11.4167 51 25.5 51Z" fill="#5A99EC"/>
<path d="M20.3471 40.188C32.8138 40.188 39.6138 29.8671 39.6138 20.9213C39.6138 20.6267 39.6138 20.3358 39.6138 20.0449C40.9384 19.0857 42.082 17.8986 42.9911 16.5391C41.7563 17.0876 40.4457 17.4468 39.1038 17.6044C40.5167 16.7582 41.5745 15.4279 42.0807 13.8607C40.7486 14.6424 39.2937 15.193 37.7778 15.4889C36.8477 14.4985 35.6413 13.8107 34.3153 13.5149C32.9893 13.219 31.6049 13.3287 30.3421 13.8298C29.0792 14.3309 27.9963 15.2001 27.2338 16.3246C26.4714 17.4491 26.0647 18.7769 26.0667 20.1355C26.0647 20.6543 26.123 21.1716 26.2404 21.6769C23.5452 21.5452 20.908 20.8475 18.5003 19.629C16.0927 18.4105 13.9686 16.6987 12.2664 14.6049C11.3988 16.0946 11.1319 17.8591 11.5201 19.5389C11.9082 21.2186 12.9223 22.6871 14.3555 23.6451C13.2795 23.6127 12.2272 23.3211 11.288 22.7951C11.2861 22.824 11.2861 22.8531 11.288 22.882C11.2886 24.4458 11.8303 25.9613 12.8212 27.1712C13.8121 28.3811 15.1911 29.2108 16.7242 29.5195C15.7276 29.7901 14.6824 29.8302 13.668 29.6367C14.1031 30.9803 14.9459 32.1551 16.0791 32.9979C17.2124 33.8408 18.58 34.3098 19.992 34.34C17.5939 36.2229 14.6316 37.2436 11.5827 37.2375C11.0435 37.2385 10.5049 37.207 9.96954 37.1431C13.0642 39.1343 16.6672 40.1914 20.3471 40.188Z" fill="white"/>
</svg>
