<svg width="18" height="18" viewBox="0 0 18 18" fill="none" xmlns="http://www.w3.org/2000/svg">
<path d="M15.3701 2.63533C13.6726 0.936947 11.4153 0.000900045 9.01035 0C4.0547 0 0.0216011 4.0313 0.0198011 8.98695C0.018901 10.571 0.432922 12.1173 1.21956 13.48L0 18.0009L4.70993 16.8875C6.0231 17.604 7.50097 17.9811 9.00585 17.982H9.00945C13.9642 17.982 17.9973 13.9498 18 8.99505C18.0018 6.59283 17.0675 4.33462 15.3701 2.63533ZM13.4089 12.1992C13.2217 12.7239 12.3045 13.2298 11.8923 13.2667C11.4801 13.3045 11.094 13.453 9.19666 12.705C6.91324 11.805 5.47137 9.46397 5.35977 9.31456C5.24726 9.16426 4.44262 8.0968 4.44262 6.99155C4.44262 5.88629 5.02315 5.34267 5.22926 5.11855C5.43537 4.89354 5.67838 4.83774 5.82869 4.83774C5.9781 4.83774 6.12841 4.83774 6.25891 4.84314C6.41912 4.84944 6.59643 4.85754 6.76474 5.23106C6.96455 5.67568 7.40107 6.78634 7.45687 6.89884C7.51267 7.01135 7.55048 7.14276 7.47577 7.29216C7.40107 7.44157 7.36327 7.53517 7.25166 7.66658C7.13916 7.79799 7.01585 7.9591 6.91504 8.0599C6.80254 8.17151 6.68553 8.29391 6.81604 8.51802C6.94745 8.74304 7.39747 9.47837 8.0653 10.0733C8.92394 10.8383 9.64668 11.0751 9.87169 11.1885C10.0967 11.301 10.2272 11.2821 10.3586 11.1318C10.49 10.9823 10.9202 10.4765 11.0697 10.2515C11.2191 10.0265 11.3694 10.0643 11.5755 10.139C11.7816 10.2137 12.8859 10.7573 13.1101 10.8698C13.3351 10.9823 13.4845 11.0381 13.5403 11.1318C13.5961 11.2245 13.5961 11.6745 13.4089 12.1992Z" fill="white"/>
</svg>
