<svg width="18" height="16" viewBox="0 0 18 16" fill="none" xmlns="http://www.w3.org/2000/svg">
<path d="M13.0909 15.364H15.5455C16.8955 15.364 18 14.2594 18 12.9094V6.29854L13.0909 10.1276V15.364ZM15.1364 0.636719C14.49 0.636719 13.8764 0.849446 13.3691 1.24217L13.0909 1.46308V8.05763L18 4.22036V3.50036C18 1.92126 16.7155 0.636719 15.1364 0.636719ZM6.54545 2.73945V9.33399L9 11.2485L11.4545 9.33399V2.73945L9 4.65399L6.54545 2.73945ZM0 12.9094C0 14.2594 1.10455 15.364 2.45455 15.364H4.90909V10.1276L0 6.29854V12.9094ZM2.86364 0.636719C1.28455 0.636719 0 1.92126 0 3.50036V4.22036L4.90909 8.05763V1.46308L4.63091 1.24217C4.12364 0.849446 3.51 0.636719 2.86364 0.636719Z" fill="white"/>
</svg>
